<mxfile host="app.diagrams.net" modified="2023-10-10T14:45:33.472Z" agent="Mozilla/5.0 (Windows NT 10.0; Win64; x64) AppleWebKit/537.36 (KHTML, like Gecko) Chrome/117.0.0.0 Safari/537.36" etag="V1pBlxr1SaYxh_uauu1f" version="22.0.4" type="github">
  <diagram name="Page-1" id="uF8d6Z5YZQ0IH_8VUQmD">
    <mxGraphModel dx="1500" dy="946" grid="1" gridSize="10" guides="1" tooltips="1" connect="1" arrows="1" fold="1" page="1" pageScale="1" pageWidth="827" pageHeight="1169" math="0" shadow="0">
      <root>
        <mxCell id="0" />
        <mxCell id="1" parent="0" />
        <mxCell id="lB7tE4sDJ6YOISGpc0Tp-2" value="Guest" style="shape=umlActor;verticalLabelPosition=bottom;verticalAlign=top;html=1;outlineConnect=0;fillColor=none;" parent="1" vertex="1">
          <mxGeometry x="60" y="470" width="30" height="60" as="geometry" />
        </mxCell>
        <mxCell id="lB7tE4sDJ6YOISGpc0Tp-3" value="&lt;br&gt;&lt;br&gt;&lt;br&gt;&lt;br&gt;&lt;br&gt;&lt;br&gt;&lt;br&gt;&lt;br&gt;&lt;br&gt;&lt;br&gt;&lt;br&gt;&lt;br&gt;&lt;br&gt;&lt;br&gt;&lt;br&gt;&lt;br&gt;&lt;br&gt;&lt;br&gt;&lt;br&gt;&lt;br&gt;&lt;br&gt;&lt;br&gt;&lt;br&gt;&lt;br&gt;&lt;br&gt;&lt;br&gt;&lt;br&gt;&lt;br&gt;&lt;br&gt;&lt;br&gt;&lt;br&gt;&lt;br&gt;&lt;br&gt;&lt;br&gt;&lt;br&gt;&lt;br&gt;&lt;br&gt;&lt;br&gt;&lt;br&gt;&lt;br&gt;&lt;br&gt;&lt;br&gt;&lt;br&gt;&lt;br&gt;Hotel Resore System" style="rounded=0;whiteSpace=wrap;html=1;fillColor=none;align=left;" parent="1" vertex="1">
          <mxGeometry x="240" y="240" width="400" height="660" as="geometry" />
        </mxCell>
        <mxCell id="lB7tE4sDJ6YOISGpc0Tp-4" value="Family Member Adding" style="ellipse;whiteSpace=wrap;html=1;fillColor=none;" parent="1" vertex="1">
          <mxGeometry x="310" y="460" width="120" height="80" as="geometry" />
        </mxCell>
        <mxCell id="lB7tE4sDJ6YOISGpc0Tp-12" value="" style="endArrow=none;html=1;rounded=0;entryX=0;entryY=0.5;entryDx=0;entryDy=0;exitX=0.5;exitY=0.5;exitDx=0;exitDy=0;exitPerimeter=0;" parent="1" source="lB7tE4sDJ6YOISGpc0Tp-2" target="lB7tE4sDJ6YOISGpc0Tp-4" edge="1">
          <mxGeometry width="50" height="50" relative="1" as="geometry">
            <mxPoint x="360" y="270" as="sourcePoint" />
            <mxPoint x="410" y="220" as="targetPoint" />
          </mxGeometry>
        </mxCell>
        <mxCell id="lB7tE4sDJ6YOISGpc0Tp-13" value="Validate User" style="ellipse;whiteSpace=wrap;html=1;fillColor=none;" parent="1" vertex="1">
          <mxGeometry x="510" y="280" width="120" height="80" as="geometry" />
        </mxCell>
        <mxCell id="lB7tE4sDJ6YOISGpc0Tp-15" value="&lt;div&gt;User Account Delete&lt;/div&gt;" style="ellipse;whiteSpace=wrap;html=1;fillColor=none;" parent="1" vertex="1">
          <mxGeometry x="310" y="570" width="120" height="80" as="geometry" />
        </mxCell>
        <mxCell id="lB7tE4sDJ6YOISGpc0Tp-16" value="&lt;div&gt;Book Reservation History Checking&lt;/div&gt;" style="ellipse;whiteSpace=wrap;html=1;fillColor=none;" parent="1" vertex="1">
          <mxGeometry x="310" y="670" width="120" height="80" as="geometry" />
        </mxCell>
        <mxCell id="lB7tE4sDJ6YOISGpc0Tp-17" value="&lt;div&gt;Points &amp;amp; Promotion&lt;/div&gt;" style="ellipse;whiteSpace=wrap;html=1;fillColor=none;" parent="1" vertex="1">
          <mxGeometry x="310" y="770" width="120" height="80" as="geometry" />
        </mxCell>
        <mxCell id="lB7tE4sDJ6YOISGpc0Tp-22" value="" style="endArrow=classic;html=1;rounded=0;entryX=0;entryY=1;entryDx=0;entryDy=0;exitX=1;exitY=0;exitDx=0;exitDy=0;dashed=1;strokeWidth=2;" parent="1" source="lB7tE4sDJ6YOISGpc0Tp-4" target="lB7tE4sDJ6YOISGpc0Tp-13" edge="1">
          <mxGeometry width="50" height="50" relative="1" as="geometry">
            <mxPoint x="410" y="480" as="sourcePoint" />
            <mxPoint x="460" y="420" as="targetPoint" />
          </mxGeometry>
        </mxCell>
        <mxCell id="lB7tE4sDJ6YOISGpc0Tp-46" value="&lt;font style=&quot;font-size: 20px;&quot;&gt;&amp;lt;&amp;lt;Include&amp;gt;&amp;gt;&lt;/font&gt;" style="edgeLabel;html=1;align=center;verticalAlign=middle;resizable=0;points=[];" parent="lB7tE4sDJ6YOISGpc0Tp-22" vertex="1" connectable="0">
          <mxGeometry x="-0.3273" y="-1" relative="1" as="geometry">
            <mxPoint as="offset" />
          </mxGeometry>
        </mxCell>
        <mxCell id="lB7tE4sDJ6YOISGpc0Tp-23" value="" style="endArrow=classic;html=1;rounded=0;entryX=0;entryY=1;entryDx=0;entryDy=0;exitX=1;exitY=0;exitDx=0;exitDy=0;dashed=1;strokeWidth=2;" parent="1" source="lB7tE4sDJ6YOISGpc0Tp-15" target="lB7tE4sDJ6YOISGpc0Tp-13" edge="1">
          <mxGeometry width="50" height="50" relative="1" as="geometry">
            <mxPoint x="422" y="482" as="sourcePoint" />
            <mxPoint x="538" y="-222" as="targetPoint" />
          </mxGeometry>
        </mxCell>
        <mxCell id="lB7tE4sDJ6YOISGpc0Tp-24" value="" style="endArrow=classic;html=1;rounded=0;entryX=0;entryY=1;entryDx=0;entryDy=0;exitX=1;exitY=0;exitDx=0;exitDy=0;dashed=1;strokeWidth=2;" parent="1" source="lB7tE4sDJ6YOISGpc0Tp-16" target="lB7tE4sDJ6YOISGpc0Tp-13" edge="1">
          <mxGeometry width="50" height="50" relative="1" as="geometry">
            <mxPoint x="432" y="492" as="sourcePoint" />
            <mxPoint x="548" y="-212" as="targetPoint" />
          </mxGeometry>
        </mxCell>
        <mxCell id="lB7tE4sDJ6YOISGpc0Tp-25" value="" style="endArrow=classic;html=1;rounded=0;entryX=0;entryY=1;entryDx=0;entryDy=0;exitX=1;exitY=0;exitDx=0;exitDy=0;dashed=1;strokeWidth=2;" parent="1" source="lB7tE4sDJ6YOISGpc0Tp-17" target="lB7tE4sDJ6YOISGpc0Tp-13" edge="1">
          <mxGeometry width="50" height="50" relative="1" as="geometry">
            <mxPoint x="442" y="502" as="sourcePoint" />
            <mxPoint x="558" y="-202" as="targetPoint" />
          </mxGeometry>
        </mxCell>
        <mxCell id="lB7tE4sDJ6YOISGpc0Tp-40" style="rounded=0;orthogonalLoop=1;jettySize=auto;html=1;exitX=0.5;exitY=0.5;exitDx=0;exitDy=0;exitPerimeter=0;entryX=0;entryY=0.5;entryDx=0;entryDy=0;endArrow=none;endFill=0;" parent="1" source="lB7tE4sDJ6YOISGpc0Tp-26" target="lB7tE4sDJ6YOISGpc0Tp-17" edge="1">
          <mxGeometry relative="1" as="geometry" />
        </mxCell>
        <mxCell id="lB7tE4sDJ6YOISGpc0Tp-26" value="Manager" style="shape=umlActor;verticalLabelPosition=bottom;verticalAlign=top;html=1;outlineConnect=0;fillColor=none;" parent="1" vertex="1">
          <mxGeometry x="60" y="720" width="30" height="60" as="geometry" />
        </mxCell>
        <mxCell id="lB7tE4sDJ6YOISGpc0Tp-30" value="" style="endArrow=none;html=1;rounded=0;exitX=0.5;exitY=0.5;exitDx=0;exitDy=0;exitPerimeter=0;entryX=0;entryY=0.5;entryDx=0;entryDy=0;" parent="1" source="lB7tE4sDJ6YOISGpc0Tp-26" target="lB7tE4sDJ6YOISGpc0Tp-4" edge="1">
          <mxGeometry width="50" height="50" relative="1" as="geometry">
            <mxPoint x="300" y="600" as="sourcePoint" />
            <mxPoint x="350" y="550" as="targetPoint" />
          </mxGeometry>
        </mxCell>
        <mxCell id="lB7tE4sDJ6YOISGpc0Tp-31" value="" style="endArrow=none;html=1;rounded=0;entryX=0;entryY=0.5;entryDx=0;entryDy=0;exitX=0.5;exitY=0.5;exitDx=0;exitDy=0;exitPerimeter=0;" parent="1" source="lB7tE4sDJ6YOISGpc0Tp-2" target="lB7tE4sDJ6YOISGpc0Tp-15" edge="1">
          <mxGeometry width="50" height="50" relative="1" as="geometry">
            <mxPoint x="185" y="390" as="sourcePoint" />
            <mxPoint x="320" y="510" as="targetPoint" />
          </mxGeometry>
        </mxCell>
        <mxCell id="lB7tE4sDJ6YOISGpc0Tp-32" value="" style="endArrow=none;html=1;rounded=0;entryX=0;entryY=0.5;entryDx=0;entryDy=0;exitX=0.5;exitY=0.5;exitDx=0;exitDy=0;exitPerimeter=0;" parent="1" source="lB7tE4sDJ6YOISGpc0Tp-2" target="lB7tE4sDJ6YOISGpc0Tp-16" edge="1">
          <mxGeometry width="50" height="50" relative="1" as="geometry">
            <mxPoint x="185" y="390" as="sourcePoint" />
            <mxPoint x="320" y="620" as="targetPoint" />
          </mxGeometry>
        </mxCell>
        <mxCell id="lB7tE4sDJ6YOISGpc0Tp-33" value="" style="endArrow=none;html=1;rounded=0;entryX=0;entryY=0.5;entryDx=0;entryDy=0;exitX=0.5;exitY=0.5;exitDx=0;exitDy=0;exitPerimeter=0;" parent="1" source="lB7tE4sDJ6YOISGpc0Tp-2" target="lB7tE4sDJ6YOISGpc0Tp-17" edge="1">
          <mxGeometry width="50" height="50" relative="1" as="geometry">
            <mxPoint x="195" y="400" as="sourcePoint" />
            <mxPoint x="330" y="630" as="targetPoint" />
          </mxGeometry>
        </mxCell>
        <mxCell id="lB7tE4sDJ6YOISGpc0Tp-42" style="rounded=0;orthogonalLoop=1;jettySize=auto;html=1;exitX=0;exitY=0.5;exitDx=0;exitDy=0;entryX=1;entryY=0.5;entryDx=0;entryDy=0;endArrow=none;endFill=0;" parent="1" source="lB7tE4sDJ6YOISGpc0Tp-41" target="lB7tE4sDJ6YOISGpc0Tp-4" edge="1">
          <mxGeometry relative="1" as="geometry" />
        </mxCell>
        <mxCell id="lB7tE4sDJ6YOISGpc0Tp-43" style="rounded=0;orthogonalLoop=1;jettySize=auto;html=1;exitX=0;exitY=0.5;exitDx=0;exitDy=0;endArrow=none;endFill=0;entryX=1;entryY=0.5;entryDx=0;entryDy=0;" parent="1" source="lB7tE4sDJ6YOISGpc0Tp-41" target="lB7tE4sDJ6YOISGpc0Tp-15" edge="1">
          <mxGeometry relative="1" as="geometry">
            <mxPoint x="430" y="620" as="targetPoint" />
          </mxGeometry>
        </mxCell>
        <mxCell id="lB7tE4sDJ6YOISGpc0Tp-44" style="rounded=0;orthogonalLoop=1;jettySize=auto;html=1;exitX=0;exitY=0.5;exitDx=0;exitDy=0;entryX=1;entryY=0.5;entryDx=0;entryDy=0;endArrow=none;endFill=0;" parent="1" source="lB7tE4sDJ6YOISGpc0Tp-41" target="lB7tE4sDJ6YOISGpc0Tp-16" edge="1">
          <mxGeometry relative="1" as="geometry" />
        </mxCell>
        <mxCell id="lB7tE4sDJ6YOISGpc0Tp-45" style="rounded=0;orthogonalLoop=1;jettySize=auto;html=1;exitX=0;exitY=0.5;exitDx=0;exitDy=0;entryX=1;entryY=0.5;entryDx=0;entryDy=0;endArrow=none;endFill=0;" parent="1" source="lB7tE4sDJ6YOISGpc0Tp-41" target="lB7tE4sDJ6YOISGpc0Tp-17" edge="1">
          <mxGeometry relative="1" as="geometry" />
        </mxCell>
        <mxCell id="lB7tE4sDJ6YOISGpc0Tp-41" value="Service Center" style="rounded=0;whiteSpace=wrap;html=1;fillColor=none;" parent="1" vertex="1">
          <mxGeometry x="690" y="560" width="120" height="60" as="geometry" />
        </mxCell>
      </root>
    </mxGraphModel>
  </diagram>
</mxfile>
